<svg width="323" height="68" viewBox="0 0 323 68" class="css-1j8o68f">
      <defs id="SvgjsDefs1317"></defs>
      <g
        id="SvgjsG1318"
        featurekey="symbolContainer"
        transform="matrix(1,0,0,1,0,0)"
        fill="#111111"
      >
        <path
          xmlns="http://www.w3.org/2000/svg"
          fill-rule="nonzero"
          d="             M0,0             H103             V68             H0,0             z             M4,4             v60             h95             v-60             z     "
        ></path>
      </g>
      <g
        id="SvgjsG1319"
        featurekey="symbolFeature-0"
        transform="matrix(0.7982884075107518,0,0,0.7982884075107518,12.085580005115984,-6.119411244202102)"
        fill="#111111"
      >
        <g
          xmlns="http://www.w3.org/2000/svg"
          transform="translate(0,-952.36218)"
        >
          <path
            style="
              text-indent: 0;
              text-transform: none;
              direction: ltr;
              block-progression: tb;
              baseline-shift: baseline;
              color: ;
              enable-background: accumulate;
            "
            d="m 53.593797,977.56534 -13,47.99996 5.8124,1.5937 13,-47.99991 -5.8124,-1.59375 z m -20.4688,3.4375 -23.9999995,18.99996 -2.9688,2.375 2.9688,2.3438 23.9999995,19 3.75,-4.7188 -21.031199,-16.625 21.031199,-16.65622 -3.75,-4.71875 z m 33.750001,0 -3.750001,4.71875 21.031206,16.65621 -21.031206,16.625 3.750001,4.7188 24.000004,-19 2.968801,-2.3438 -2.968801,-2.375 -24.000004,-18.99996 z"
            fill="#111111"
            fill-opacity="1"
            stroke="none"
            marker="none"
            visibility="visible"
            display="inline"
            overflow="visible"
          ></path>
        </g>
      </g>
      <g
        id="SvgjsG1320"
        featurekey="nameFeature-0"
        transform="matrix(1.2830379431611216,0,0,1.2830379431611216,119.71542355072371,2.1696205683887833)"
        fill="#111111"
      >
        <path
          d="M10.56 16.56 l0 5.48 l12.8 0 l0 5.56 l-12.8 0 l0 5.84 l13.92 0 l0 6.56 l-21.92 0 l0 -30 l21.64 0 l0 6.56 l-13.64 0 z M29.44 19 l6.68 0 l0 2.96 l0.28 0 c0.84 -2.48 3.4 -3.2 5.76 -3.2 c2.96 0 6 0.52 6.36 4.12 l0.32 0 c0.36 -3 3.2 -4.12 5.84 -4.12 c4.84 0 7.32 2 7.32 6.88 l0 14.36 l-6.88 0 l0 -12.16 c-0.12 -2.2 -0.08 -3.8 -2.76 -3.8 s-3.2 1.8 -3.2 4.04 l0 11.92 l-6.88 0 l0 -12.72 c-0.08 -1.92 -0.2 -3.24 -2.6 -3.24 c-2.84 0 -3.36 1.52 -3.36 4.04 l0 11.92 l-6.88 0 l0 -21 z M66.48 10 l6.88 0 l0 12 l0.32 0 c1.12 -2.72 3.32 -3.24 5.84 -3.24 c5.76 0 7.96 2.56 7.96 8.96 l0 4.8 c0 5.56 -2.88 7.72 -7.96 7.72 c-3 0 -5.2 -0.72 -6 -3.88 l-0.32 0 l0.16 3.64 l-6.88 0 l0 -30 z M77.16 34.96 c2.92 0 3.44 -1.04 3.44 -5.48 c0 -3.52 -0.24 -5.44 -3.44 -5.44 c-2.84 0 -3.8 0.68 -3.8 5.44 c0 4.08 0.16 5.48 3.8 5.48 z M96.88 26.880000000000003 l6.76 0 c0 -3.12 -1.16 -3.32 -3.48 -3.32 c-2.44 0 -3.2 0.56 -3.28 3.32 z M103.75999999999999 33 l6.76 0 c0 3.16 -1.04 4.96 -2.84 6 c-1.8 1 -4.36 1.24 -7.4 1.24 c-8.28 0 -10.28 -2.88 -10.28 -10.72 c0 -8.08 1.84 -10.76 10.28 -10.76 c7.88 0 10.24 2.2 10.24 10.76 l0 1.16 l-13.64 0 c0 3.68 0.56 4.76 3.4 4.76 c2.12 0 3.48 -0.24 3.48 -2.44 z M134.07999999999998 10 l0 30 l-6.88 0 l0.16 -3.64 l-0.32 0 c-0.8 3.16 -3 3.88 -6 3.88 c-5.08 0 -7.96 -2.16 -7.96 -7.72 l0 -4.8 c0 -6.4 2.2 -8.96 7.96 -8.96 c2.52 0 4.72 0.52 5.84 3.24 l0.32 0 l0 -12 l6.88 0 z M119.96 29.52 c0 5.12 0.64 5.44 3.52 5.44 c2.84 0 3.72 -0.68 3.72 -5.44 c0 -4.08 -0.08 -5.48 -3.72 -5.48 c-3.44 0 -3.52 1.32 -3.52 5.48 z M158.43999999999997 40 l-6.68 0 l0.24 -4.04 l-0.32 0 c-0.96 3.24 -3.36 4.28 -6.28 4.28 c-4.16 0 -7.12 -1.76 -7.12 -6.88 l0 -14.36 l6.88 0 l0 12.52 c0 1.92 0.2 3.44 2.52 3.44 c1.84 0 3.88 -0.96 3.88 -3.04 l0 -12.92 l6.88 0 l0 21 z"
        ></path>
      </g>
    </svg>
